<svg width="78" height="84" viewBox="0 0 78 84" fill="none" xmlns="http://www.w3.org/2000/svg">
<g filter="url(#filter0_f_175_11)">
<path d="M27.1059 44.0747C24.7733 50.6294 24.7478 52.6255 25.0267 52.8043C27.8983 59.3676 36.7854 61.7951 38.4724 56.8463C40.1593 51.8975 46.5481 43.3878 51.196 41.3542C55.8438 39.3206 50.8924 28.5542 45.9647 24.9959C41.0371 21.4375 42.0266 30.0273 38.1613 34.1246C34.2961 38.2219 30.0217 35.8814 27.1059 44.0747Z" fill="#FDC400"/>
</g>
<path d="M29.8067 49.8559C27.7536 54.0207 25.4072 61.2945 32.4464 57.071C41.2454 51.7918 56.7316 23.1071 50.2203 26.8026C45.0113 29.7591 42.8878 31.0848 42.4772 31.3781" stroke="black"/>
<path d="M38.9528 28.9142C40.6794 28.9142 42.2894 29.2875 43.7828 30.0342C45.2761 30.7808 46.4661 31.8192 47.3528 33.1492C48.2394 34.4792 48.6828 35.9842 48.6828 37.6642V37.9092H41.8928C41.8928 36.7192 41.5661 35.8325 40.9128 35.2492C40.2594 34.6658 39.4194 34.3742 38.3928 34.3742H38.2178C37.2378 34.3742 36.4094 34.7125 35.7328 35.3892C35.0561 36.0658 34.7178 36.8942 34.7178 37.8742V44.6292C34.7178 45.6092 35.0561 46.4375 35.7328 47.1142C36.4094 47.7908 37.2378 48.1292 38.2178 48.1292H38.8478C39.8278 48.1292 40.5744 47.8258 41.0878 47.2192C41.6244 46.5892 41.8928 45.7142 41.8928 44.5942H37.8328V39.8342H48.6828V48.2342C48.6828 50.0775 48.7178 51.2908 48.7878 51.8742L48.9278 53.2742H45.0078L44.0278 50.7192C43.2811 51.5592 42.2661 52.2592 40.9828 52.8192C39.7228 53.3558 38.4511 53.6242 37.1678 53.6242H36.8178C34.9278 53.6242 33.2128 53.1575 31.6728 52.2242C30.1561 51.2908 28.9661 50.0192 28.1028 48.4092C27.2394 46.7992 26.8078 45.0375 26.8078 43.1242V39.4142C26.8078 37.4775 27.2744 35.7158 28.2078 34.1292C29.1644 32.5192 30.4944 31.2475 32.1978 30.3142C33.9011 29.3808 35.8261 28.9142 37.9728 28.9142H38.9528Z" fill="#F6F4ED"/>
<path d="M32.4464 57.071C41.2453 51.7918 56.7315 23.1071 50.2203 26.8026" stroke="black"/>
<defs>
<filter id="filter0_f_175_11" x="0.905884" y="0.151855" width="76.1478" height="83.3228" filterUnits="userSpaceOnUse" color-interpolation-filters="sRGB">
<feFlood flood-opacity="0" result="BackgroundImageFix"/>
<feBlend mode="normal" in="SourceGraphic" in2="BackgroundImageFix" result="shape"/>
<feGaussianBlur stdDeviation="12" result="effect1_foregroundBlur_175_11"/>
</filter>
</defs>
</svg>
